# Blender v2.93.1 OBJ File: 'signos.blend'
# www.blender.org
mtllib circle.mtl
o Cylinder
v -0.999999 0.001140 -1.000000
v -1.000222 -0.193950 -0.980785
v 0.999777 -0.196230 -0.980785
v 0.999999 -0.001140 -1.000000
v -1.000436 -0.381543 -0.923880
v 0.999563 -0.383823 -0.923880
v -1.000633 -0.554430 -0.831470
v 0.999366 -0.556710 -0.831470
v -1.000806 -0.705966 -0.707107
v 0.999193 -0.708246 -0.707107
v -1.000947 -0.830329 -0.555570
v 0.999051 -0.832609 -0.555570
v -1.001053 -0.922739 -0.382683
v 0.998946 -0.925019 -0.382683
v -1.001118 -0.979644 -0.195090
v 0.998881 -0.981925 -0.195090
v -1.001140 -0.998859 0.000000
v 0.998859 -1.001140 0.000000
v -1.001118 -0.979644 0.195090
v 0.998881 -0.981925 0.195090
v -1.001053 -0.922739 0.382683
v 0.998946 -0.925019 0.382683
v -1.000947 -0.830329 0.555570
v 0.999051 -0.832609 0.555570
v -1.000806 -0.705966 0.707107
v 0.999193 -0.708246 0.707107
v -1.000633 -0.554430 0.831470
v 0.999366 -0.556710 0.831470
v -1.000436 -0.381543 0.923880
v 0.999563 -0.383823 0.923880
v -1.000222 -0.193950 0.980785
v 0.999777 -0.196230 0.980785
v -0.999999 0.001140 1.000000
v 0.999999 -0.001140 1.000000
v -0.999777 0.196230 0.980785
v 1.000222 0.193950 0.980785
v -0.999563 0.383823 0.923880
v 1.000436 0.381543 0.923880
v -0.999366 0.556710 0.831470
v 1.000633 0.554430 0.831470
v -0.999193 0.708246 0.707107
v 1.000806 0.705966 0.707107
v -0.999051 0.832609 0.555570
v 1.000947 0.830329 0.555570
v -0.998946 0.925019 0.382684
v 1.001053 0.922739 0.382684
v -0.998881 0.981925 0.195090
v 1.001118 0.979644 0.195090
v -0.998859 1.001140 -0.000000
v 1.001140 0.998859 -0.000000
v -0.998881 0.981925 -0.195090
v 1.001118 0.979644 -0.195090
v -0.998946 0.925019 -0.382684
v 1.001053 0.922739 -0.382684
v -0.999051 0.832609 -0.555570
v 1.000947 0.830329 -0.555570
v -0.999193 0.708247 -0.707107
v 1.000806 0.705966 -0.707107
v -0.999366 0.556710 -0.831470
v 1.000633 0.554430 -0.831470
v -0.999563 0.383823 -0.923880
v 1.000436 0.381543 -0.923880
v -0.999777 0.196230 -0.980785
v 1.000222 0.193950 -0.980785
v -0.999999 0.001140 -0.811485
v -1.000180 -0.157173 -0.795892
v 0.999819 -0.159453 -0.795892
v 0.999999 -0.001140 -0.811485
v -1.000353 -0.309401 -0.749714
v 0.999645 -0.311682 -0.749714
v -1.000513 -0.449696 -0.674725
v 0.999485 -0.451977 -0.674725
v -1.000654 -0.572666 -0.573806
v 0.999345 -0.574946 -0.573806
v -1.000769 -0.673584 -0.450837
v 0.999230 -0.675865 -0.450837
v -1.000854 -0.748573 -0.310542
v 0.999145 -0.750854 -0.310542
v -1.000907 -0.794751 -0.158313
v 0.999092 -0.797032 -0.158313
v -1.000925 -0.810344 0.000000
v 0.999074 -0.812624 0.000000
v -1.000907 -0.794752 0.158313
v 0.999092 -0.797032 0.158313
v -1.000854 -0.748573 0.310542
v 0.999145 -0.750854 0.310542
v -1.000769 -0.673584 0.450837
v 0.999230 -0.675865 0.450837
v -1.000654 -0.572666 0.573806
v 0.999345 -0.574946 0.573806
v -1.000513 -0.449696 0.674725
v 0.999485 -0.451977 0.674725
v -1.000353 -0.309401 0.749714
v 0.999645 -0.311682 0.749714
v -1.000180 -0.157173 0.795892
v 0.999819 -0.159453 0.795892
v -0.999999 0.001140 0.811485
v 0.999999 -0.001140 0.811485
v -0.999819 0.159453 0.795892
v 1.000180 0.157172 0.795892
v -0.999645 0.311682 0.749714
v 1.000353 0.309401 0.749714
v -0.999485 0.451977 0.674725
v 1.000513 0.449696 0.674725
v -0.999345 0.574946 0.573806
v 1.000654 0.572666 0.573806
v -0.999230 0.675865 0.450837
v 1.000769 0.673584 0.450837
v -0.999145 0.750854 0.310542
v 1.000854 0.748573 0.310542
v -0.999092 0.797032 0.158313
v 1.000907 0.794752 0.158313
v -0.999074 0.812624 -0.000000
v 1.000925 0.810344 -0.000000
v -0.999092 0.797032 -0.158313
v 1.000907 0.794752 -0.158313
v -0.999145 0.750854 -0.310542
v 1.000854 0.748573 -0.310542
v -0.999230 0.675865 -0.450837
v 1.000769 0.673584 -0.450837
v -0.999345 0.574946 -0.573806
v 1.000654 0.572666 -0.573806
v -0.999485 0.451977 -0.674725
v 1.000513 0.449696 -0.674725
v -0.999645 0.311682 -0.749714
v 1.000353 0.309401 -0.749714
v -0.999819 0.159453 -0.795892
v 1.000180 0.157172 -0.795892
v -0.248268 0.000852 -0.811485
v -0.248328 -0.157461 -0.795892
v 0.248208 -0.159164 -0.795892
v 0.248268 -0.000852 -0.811485
v -0.248386 -0.309690 -0.749714
v 0.248150 -0.311393 -0.749714
v -0.248439 -0.449985 -0.674725
v 0.248097 -0.451688 -0.674725
v -0.248485 -0.572954 -0.573806
v 0.248050 -0.574657 -0.573806
v -0.248524 -0.673873 -0.450837
v 0.248012 -0.675576 -0.450837
v -0.248552 -0.748862 -0.310542
v 0.247984 -0.750565 -0.310542
v -0.248570 -0.795040 -0.158313
v 0.247966 -0.796743 -0.158313
v -0.248575 -0.810633 0.000000
v 0.247960 -0.812336 0.000000
v -0.248570 -0.795040 0.158313
v 0.247966 -0.796743 0.158313
v -0.248552 -0.748862 0.310542
v 0.247984 -0.750565 0.310542
v -0.248524 -0.673873 0.450837
v 0.248012 -0.675576 0.450837
v -0.248485 -0.572954 0.573806
v 0.248050 -0.574657 0.573806
v -0.248439 -0.449985 0.674725
v 0.248097 -0.451688 0.674725
v -0.248386 -0.309690 0.749714
v 0.248150 -0.311393 0.749714
v -0.248328 -0.157461 0.795892
v 0.248208 -0.159164 0.795892
v -0.248268 0.000852 0.811485
v 0.248268 -0.000852 0.811485
v -0.248208 0.159164 0.795892
v 0.248328 0.157461 0.795892
v -0.248150 0.311393 0.749714
v 0.248386 0.309690 0.749714
v -0.248097 0.451688 0.674725
v 0.248439 0.449985 0.674725
v -0.248050 0.574657 0.573806
v 0.248485 0.572954 0.573806
v -0.248012 0.675576 0.450837
v 0.248524 0.673873 0.450837
v -0.247984 0.750565 0.310542
v 0.248552 0.748862 0.310542
v -0.247966 0.796743 0.158313
v 0.248570 0.795040 0.158313
v -0.247960 0.812336 -0.000000
v 0.248575 0.810633 -0.000000
v -0.247966 0.796743 -0.158313
v 0.248570 0.795040 -0.158313
v -0.247984 0.750565 -0.310542
v 0.248552 0.748862 -0.310542
v -0.248012 0.675576 -0.450837
v 0.248524 0.673873 -0.450837
v -0.248050 0.574658 -0.573806
v 0.248485 0.572954 -0.573806
v -0.248097 0.451688 -0.674725
v 0.248439 0.449985 -0.674725
v -0.248150 0.311393 -0.749714
v 0.248386 0.309690 -0.749714
v -0.248208 0.159164 -0.795892
v 0.248328 0.157461 -0.795892
v 0.248268 -0.000852 0.000000
v -0.248268 0.000852 0.000000
vt 1.000000 0.500000
vt 1.000000 1.000000
vt 0.968750 1.000000
vt 0.968750 0.500000
vt 0.937500 1.000000
vt 0.937500 0.500000
vt 0.906250 1.000000
vt 0.906250 0.500000
vt 0.875000 1.000000
vt 0.875000 0.500000
vt 0.843750 1.000000
vt 0.843750 0.500000
vt 0.812500 1.000000
vt 0.812500 0.500000
vt 0.781250 1.000000
vt 0.781250 0.500000
vt 0.750000 1.000000
vt 0.750000 0.500000
vt 0.718750 1.000000
vt 0.718750 0.500000
vt 0.687500 1.000000
vt 0.687500 0.500000
vt 0.656250 1.000000
vt 0.656250 0.500000
vt 0.625000 1.000000
vt 0.625000 0.500000
vt 0.593750 1.000000
vt 0.593750 0.500000
vt 0.562500 1.000000
vt 0.562500 0.500000
vt 0.531250 1.000000
vt 0.531250 0.500000
vt 0.500000 1.000000
vt 0.500000 0.500000
vt 0.468750 1.000000
vt 0.468750 0.500000
vt 0.437500 1.000000
vt 0.437500 0.500000
vt 0.406250 1.000000
vt 0.406250 0.500000
vt 0.375000 1.000000
vt 0.375000 0.500000
vt 0.343750 1.000000
vt 0.343750 0.500000
vt 0.312500 1.000000
vt 0.312500 0.500000
vt 0.281250 1.000000
vt 0.281250 0.500000
vt 0.250000 1.000000
vt 0.250000 0.500000
vt 0.218750 1.000000
vt 0.218750 0.500000
vt 0.187500 1.000000
vt 0.187500 0.500000
vt 0.156250 1.000000
vt 0.156250 0.500000
vt 0.125000 1.000000
vt 0.125000 0.500000
vt 0.093750 1.000000
vt 0.093750 0.500000
vt 0.062500 1.000000
vt 0.062500 0.500000
vt 0.031250 1.000000
vt 0.031250 0.500000
vt 0.000000 1.000000
vt 0.000000 0.500000
vt 0.787995 0.441014
vt 0.750000 0.444756
vt 0.750000 0.490000
vt 0.796822 0.485388
vt 0.250000 0.444756
vt 0.287995 0.441014
vt 0.296822 0.485388
vt 0.250000 0.490000
vt 0.824530 0.429931
vt 0.841844 0.471731
vt 0.324530 0.429931
vt 0.341844 0.471731
vt 0.858201 0.411934
vt 0.883337 0.449553
vt 0.358201 0.411934
vt 0.383337 0.449553
vt 0.887714 0.387714
vt 0.919706 0.419706
vt 0.387714 0.387713
vt 0.419706 0.419706
vt 0.911934 0.358201
vt 0.949553 0.383337
vt 0.411934 0.358201
vt 0.449553 0.383337
vt 0.929931 0.324530
vt 0.971731 0.341844
vt 0.429931 0.324530
vt 0.471731 0.341844
vt 0.941014 0.287995
vt 0.985388 0.296822
vt 0.441014 0.287995
vt 0.485388 0.296822
vt 0.944756 0.250000
vt 0.990000 0.250000
vt 0.444756 0.250000
vt 0.490000 0.250000
vt 0.941014 0.212005
vt 0.985388 0.203178
vt 0.441014 0.212005
vt 0.485388 0.203178
vt 0.929931 0.175470
vt 0.971731 0.158156
vt 0.429931 0.175470
vt 0.471731 0.158156
vt 0.911934 0.141799
vt 0.949553 0.116663
vt 0.411934 0.141799
vt 0.449553 0.116663
vt 0.887714 0.112287
vt 0.919706 0.080294
vt 0.387714 0.112286
vt 0.419706 0.080294
vt 0.858201 0.088066
vt 0.883337 0.050447
vt 0.358201 0.088066
vt 0.383337 0.050447
vt 0.824530 0.070069
vt 0.841844 0.028269
vt 0.324530 0.070069
vt 0.341844 0.028269
vt 0.787995 0.058986
vt 0.796822 0.014612
vt 0.287995 0.058986
vt 0.296822 0.014612
vt 0.750000 0.055244
vt 0.750000 0.010000
vt 0.250000 0.055244
vt 0.250000 0.010000
vt 0.712005 0.058986
vt 0.703178 0.014612
vt 0.212005 0.058986
vt 0.203178 0.014612
vt 0.675470 0.070069
vt 0.658156 0.028269
vt 0.175470 0.070069
vt 0.158156 0.028269
vt 0.641799 0.088066
vt 0.616663 0.050447
vt 0.141799 0.088066
vt 0.116663 0.050447
vt 0.612286 0.112286
vt 0.580294 0.080294
vt 0.112287 0.112287
vt 0.080294 0.080294
vt 0.588066 0.141799
vt 0.550447 0.116663
vt 0.088066 0.141799
vt 0.050447 0.116663
vt 0.570069 0.175470
vt 0.528269 0.158156
vt 0.070069 0.175470
vt 0.028269 0.158156
vt 0.558986 0.212005
vt 0.514612 0.203178
vt 0.058986 0.212005
vt 0.014612 0.203178
vt 0.555244 0.250000
vt 0.510000 0.250000
vt 0.055244 0.250000
vt 0.010000 0.250000
vt 0.558986 0.287995
vt 0.514612 0.296822
vt 0.058986 0.287995
vt 0.014612 0.296822
vt 0.570069 0.324530
vt 0.528269 0.341844
vt 0.070069 0.324530
vt 0.028269 0.341844
vt 0.588066 0.358201
vt 0.550447 0.383337
vt 0.088066 0.358201
vt 0.050447 0.383337
vt 0.612286 0.387713
vt 0.580294 0.419706
vt 0.112286 0.387713
vt 0.080294 0.419706
vt 0.641799 0.411934
vt 0.616663 0.449553
vt 0.141799 0.411934
vt 0.116663 0.449553
vt 0.675470 0.429931
vt 0.658156 0.471731
vt 0.175470 0.429931
vt 0.158156 0.471731
vt 0.712005 0.441014
vt 0.703178 0.485388
vt 0.212005 0.441014
vt 0.203178 0.485388
vt 0.824530 0.070069
vt 0.858201 0.088066
vt 0.588066 0.358201
vt 0.570069 0.324530
vt 0.387714 0.112286
vt 0.358201 0.088066
vt 0.058986 0.287995
vt 0.070069 0.324530
vt 0.887714 0.112287
vt 0.558986 0.287995
vt 0.411934 0.141799
vt 0.055244 0.250000
vt 0.911934 0.141799
vt 0.555244 0.250000
vt 0.429931 0.175470
vt 0.058986 0.212005
vt 0.929931 0.175470
vt 0.558986 0.212005
vt 0.441014 0.212005
vt 0.070069 0.175470
vt 0.941014 0.212005
vt 0.570069 0.175470
vt 0.444756 0.250000
vt 0.088066 0.141799
vt 0.944756 0.250000
vt 0.588066 0.141799
vt 0.441014 0.287995
vt 0.112287 0.112287
vt 0.941014 0.287995
vt 0.612286 0.112286
vt 0.429931 0.324530
vt 0.141799 0.088066
vt 0.929931 0.324530
vt 0.641799 0.088066
vt 0.411934 0.358201
vt 0.175470 0.070069
vt 0.212005 0.441014
vt 0.250000 0.444756
vt 0.911934 0.358201
vt 0.675470 0.070069
vt 0.750000 0.444756
vt 0.712005 0.441014
vt 0.387714 0.387713
vt 0.212005 0.058986
vt 0.175470 0.429931
vt 0.887714 0.387714
vt 0.712005 0.058986
vt 0.675470 0.429931
vt 0.358201 0.411934
vt 0.250000 0.055244
vt 0.141799 0.411934
vt 0.858201 0.411934
vt 0.750000 0.055244
vt 0.641799 0.411934
vt 0.324530 0.429931
vt 0.287995 0.058986
vt 0.112286 0.387713
vt 0.824530 0.429931
vt 0.787995 0.058986
vt 0.612286 0.387713
vt 0.287995 0.441014
vt 0.324530 0.070069
vt 0.088066 0.358201
vt 0.787995 0.441014
vt 0.750000 0.333857
vt 0.266360 0.332246
vt 0.766360 0.332246
vt 0.282091 0.327474
vt 0.782091 0.327474
vt 0.296589 0.319725
vt 0.796589 0.319725
vt 0.309296 0.309296
vt 0.809296 0.309296
vt 0.319725 0.296589
vt 0.819725 0.296589
vt 0.327474 0.282091
vt 0.827474 0.282091
vt 0.332246 0.266360
vt 0.832246 0.266360
vt 0.333857 0.250000
vt 0.833857 0.250000
vt 0.332246 0.233640
vt 0.832246 0.233640
vt 0.327474 0.217909
vt 0.827474 0.217909
vt 0.319725 0.203411
vt 0.819725 0.203411
vt 0.309296 0.190704
vt 0.809296 0.190704
vt 0.296589 0.180275
vt 0.796589 0.180275
vt 0.282091 0.172526
vt 0.782091 0.172526
vt 0.266360 0.167754
vt 0.766360 0.167754
vt 0.250000 0.166143
vt 0.750000 0.166143
vt 0.233640 0.167754
vt 0.733640 0.167754
vt 0.217909 0.172526
vt 0.717909 0.172526
vt 0.203411 0.180275
vt 0.703411 0.180275
vt 0.190704 0.190704
vt 0.690704 0.190704
vt 0.180275 0.203411
vt 0.680275 0.203411
vt 0.172526 0.217909
vt 0.672526 0.217909
vt 0.167754 0.233640
vt 0.667754 0.233640
vt 0.166143 0.250000
vt 0.666143 0.250000
vt 0.167754 0.266360
vt 0.667754 0.266360
vt 0.172526 0.282091
vt 0.672526 0.282091
vt 0.180275 0.296589
vt 0.680275 0.296589
vt 0.190704 0.309296
vt 0.690704 0.309296
vt 0.203411 0.319725
vt 0.703411 0.319725
vt 0.217909 0.327474
vt 0.717909 0.327474
vt 0.233640 0.332246
vt 0.733640 0.332246
vt 0.250000 0.333857
vn -0.0001 -0.0980 -0.9952
vn -0.0003 -0.2903 -0.9569
vn -0.0005 -0.4714 -0.8819
vn -0.0007 -0.6344 -0.7730
vn -0.0009 -0.7730 -0.6344
vn -0.0010 -0.8819 -0.4714
vn -0.0011 -0.9569 -0.2903
vn -0.0011 -0.9952 -0.0980
vn -0.0011 -0.9952 0.0980
vn -0.0011 -0.9569 0.2903
vn -0.0010 -0.8819 0.4714
vn -0.0009 -0.7730 0.6344
vn -0.0007 -0.6344 0.7730
vn -0.0005 -0.4714 0.8819
vn -0.0003 -0.2903 0.9569
vn -0.0001 -0.0980 0.9952
vn 0.0001 0.0980 0.9952
vn 0.0003 0.2903 0.9569
vn 0.0005 0.4714 0.8819
vn 0.0007 0.6344 0.7730
vn 0.0009 0.7730 0.6344
vn 0.0010 0.8819 0.4714
vn 0.0011 0.9569 0.2903
vn 0.0011 0.9952 0.0980
vn 0.0011 0.9952 -0.0980
vn 0.0011 0.9569 -0.2903
vn 0.0010 0.8819 -0.4714
vn 0.0009 0.7730 -0.6344
vn 0.0007 0.6344 -0.7730
vn 0.0005 0.4714 -0.8819
vn 0.0003 0.2903 -0.9569
vn 0.0001 0.0980 -0.9952
vn -1.0000 0.0011 -0.0000
vn 1.0000 -0.0011 -0.0000
vn 0.0002 0.4714 -0.8819
vn -0.0003 -0.8819 0.4714
vn 0.0002 0.6344 -0.7730
vn -0.0004 -0.9569 0.2903
vn 0.0003 0.7730 -0.6344
vn -0.0004 -0.9952 0.0980
vn 0.0003 0.8819 -0.4714
vn -0.0004 -0.9952 -0.0980
vn 0.0004 0.9569 -0.2903
vn -0.0004 -0.9569 -0.2903
vn 0.0004 0.9952 -0.0980
vn -0.0003 -0.8819 -0.4714
vn 0.0004 0.9952 0.0980
vn -0.0003 -0.7730 -0.6344
vn 0.0004 0.9569 0.2903
vn -0.0002 -0.6344 -0.7730
vn 0.0003 0.8819 0.4714
vn -0.0002 -0.4714 -0.8819
vn -0.0000 -0.0980 0.9952
vn 0.0003 0.7730 0.6344
vn -0.0001 -0.2903 -0.9569
vn -0.0001 -0.2903 0.9569
vn 0.0002 0.6344 0.7730
vn -0.0000 -0.0980 -0.9952
vn -0.0002 -0.4714 0.8819
vn 0.0002 0.4714 0.8819
vn 0.0000 0.0980 -0.9952
vn -0.0002 -0.6344 0.7730
vn 0.0001 0.2903 0.9569
vn 0.0001 0.2903 -0.9569
vn -0.0003 -0.7730 0.6344
vn 0.0000 0.0980 0.9952
vn -1.0000 0.0004 0.0000
vn 1.0000 -0.0004 -0.0000
usemtl None
s off
f 1/1/1 4/2/1 3/3/1 2/4/1
f 2/4/2 3/3/2 6/5/2 5/6/2
f 5/6/3 6/5/3 8/7/3 7/8/3
f 7/8/4 8/7/4 10/9/4 9/10/4
f 9/10/5 10/9/5 12/11/5 11/12/5
f 11/12/6 12/11/6 14/13/6 13/14/6
f 13/14/7 14/13/7 16/15/7 15/16/7
f 15/16/8 16/15/8 18/17/8 17/18/8
f 17/18/9 18/17/9 20/19/9 19/20/9
f 19/20/10 20/19/10 22/21/10 21/22/10
f 21/22/11 22/21/11 24/23/11 23/24/11
f 23/24/12 24/23/12 26/25/12 25/26/12
f 25/26/13 26/25/13 28/27/13 27/28/13
f 27/28/14 28/27/14 30/29/14 29/30/14
f 29/30/15 30/29/15 32/31/15 31/32/15
f 31/32/16 32/31/16 34/33/16 33/34/16
f 33/34/17 34/33/17 36/35/17 35/36/17
f 35/36/18 36/35/18 38/37/18 37/38/18
f 37/38/19 38/37/19 40/39/19 39/40/19
f 39/40/20 40/39/20 42/41/20 41/42/20
f 41/42/21 42/41/21 44/43/21 43/44/21
f 43/44/22 44/43/22 46/45/22 45/46/22
f 45/46/23 46/45/23 48/47/23 47/48/23
f 47/48/24 48/47/24 50/49/24 49/50/24
f 49/50/25 50/49/25 52/51/25 51/52/25
f 51/52/26 52/51/26 54/53/26 53/54/26
f 53/54/27 54/53/27 56/55/27 55/56/27
f 55/56/28 56/55/28 58/57/28 57/58/28
f 57/58/29 58/57/29 60/59/29 59/60/29
f 59/60/30 60/59/30 62/61/30 61/62/30
f 61/62/31 62/61/31 64/63/31 63/64/31
f 63/64/32 64/63/32 4/65/32 1/66/32
f 66/67/33 65/68/33 1/69/33 2/70/33
f 68/71/34 67/72/34 3/73/34 4/74/34
f 69/75/33 66/67/33 2/70/33 5/76/33
f 67/72/34 70/77/34 6/78/34 3/73/34
f 71/79/33 69/75/33 5/76/33 7/80/33
f 70/77/34 72/81/34 8/82/34 6/78/34
f 73/83/33 71/79/33 7/80/33 9/84/33
f 72/81/34 74/85/34 10/86/34 8/82/34
f 75/87/33 73/83/33 9/84/33 11/88/33
f 74/85/34 76/89/34 12/90/34 10/86/34
f 77/91/33 75/87/33 11/88/33 13/92/33
f 76/89/34 78/93/34 14/94/34 12/90/34
f 79/95/33 77/91/33 13/92/33 15/96/33
f 78/93/34 80/97/34 16/98/34 14/94/34
f 81/99/33 79/95/33 15/96/33 17/100/33
f 80/97/34 82/101/34 18/102/34 16/98/34
f 83/103/33 81/99/33 17/100/33 19/104/33
f 82/101/34 84/105/34 20/106/34 18/102/34
f 85/107/33 83/103/33 19/104/33 21/108/33
f 84/105/34 86/109/34 22/110/34 20/106/34
f 87/111/33 85/107/33 21/108/33 23/112/33
f 86/109/34 88/113/34 24/114/34 22/110/34
f 89/115/33 87/111/33 23/112/33 25/116/33
f 88/113/34 90/117/34 26/118/34 24/114/34
f 91/119/33 89/115/33 25/116/33 27/120/33
f 90/117/34 92/121/34 28/122/34 26/118/34
f 93/123/33 91/119/33 27/120/33 29/124/33
f 92/121/34 94/125/34 30/126/34 28/122/34
f 95/127/33 93/123/33 29/124/33 31/128/33
f 94/125/34 96/129/34 32/130/34 30/126/34
f 97/131/33 95/127/33 31/128/33 33/132/33
f 96/129/34 98/133/34 34/134/34 32/130/34
f 99/135/33 97/131/33 33/132/33 35/136/33
f 98/133/34 100/137/34 36/138/34 34/134/34
f 101/139/33 99/135/33 35/136/33 37/140/33
f 100/137/34 102/141/34 38/142/34 36/138/34
f 103/143/33 101/139/33 37/140/33 39/144/33
f 102/141/34 104/145/34 40/146/34 38/142/34
f 105/147/33 103/143/33 39/144/33 41/148/33
f 104/145/34 106/149/34 42/150/34 40/146/34
f 107/151/33 105/147/33 41/148/33 43/152/33
f 106/149/34 108/153/34 44/154/34 42/150/34
f 109/155/33 107/151/33 43/152/33 45/156/33
f 108/153/34 110/157/34 46/158/34 44/154/34
f 111/159/33 109/155/33 45/156/33 47/160/33
f 110/157/34 112/161/34 48/162/34 46/158/34
f 113/163/33 111/159/33 47/160/33 49/164/33
f 112/161/34 114/165/34 50/166/34 48/162/34
f 115/167/33 113/163/33 49/164/33 51/168/33
f 114/165/34 116/169/34 52/170/34 50/166/34
f 117/171/33 115/167/33 51/168/33 53/172/33
f 116/169/34 118/173/34 54/174/34 52/170/34
f 119/175/33 117/171/33 53/172/33 55/176/33
f 118/173/34 120/177/34 56/178/34 54/174/34
f 121/179/33 119/175/33 55/176/33 57/180/33
f 120/177/34 122/181/34 58/182/34 56/178/34
f 123/183/33 121/179/33 57/180/33 59/184/33
f 122/181/34 124/185/34 60/186/34 58/182/34
f 125/187/33 123/183/33 59/184/33 61/188/33
f 124/185/34 126/189/34 62/190/34 60/186/34
f 127/191/33 125/187/33 61/188/33 63/192/33
f 126/189/34 128/193/34 64/194/34 62/190/34
f 65/68/33 127/191/33 63/192/33 1/69/33
f 128/193/34 68/71/34 4/74/34 64/194/34
f 91/119/35 93/123/35 157/195/35 155/196/35
f 117/171/36 119/175/36 183/197/36 181/198/36
f 92/121/37 90/117/37 154/199/37 156/200/37
f 118/173/38 116/169/38 180/201/38 182/202/38
f 89/115/37 91/119/37 155/196/37 153/203/37
f 115/167/38 117/171/38 181/198/38 179/204/38
f 90/117/39 88/113/39 152/205/39 154/199/39
f 116/169/40 114/165/40 178/206/40 180/201/40
f 87/111/39 89/115/39 153/203/39 151/207/39
f 113/163/40 115/167/40 179/204/40 177/208/40
f 88/113/41 86/109/41 150/209/41 152/205/41
f 114/165/42 112/161/42 176/210/42 178/206/42
f 85/107/41 87/111/41 151/207/41 149/211/41
f 111/159/42 113/163/42 177/208/42 175/212/42
f 86/109/43 84/105/43 148/213/43 150/209/43
f 112/161/44 110/157/44 174/214/44 176/210/44
f 83/103/43 85/107/43 149/211/43 147/215/43
f 109/155/44 111/159/44 175/212/44 173/216/44
f 84/105/45 82/101/45 146/217/45 148/213/45
f 110/157/46 108/153/46 172/218/46 174/214/46
f 81/99/45 83/103/45 147/215/45 145/219/45
f 107/151/46 109/155/46 173/216/46 171/220/46
f 82/101/47 80/97/47 144/221/47 146/217/47
f 108/153/48 106/149/48 170/222/48 172/218/48
f 79/95/47 81/99/47 145/219/47 143/223/47
f 105/147/48 107/151/48 171/220/48 169/224/48
f 80/97/49 78/93/49 142/225/49 144/221/49
f 106/149/50 104/145/50 168/226/50 170/222/50
f 77/91/49 79/95/49 143/223/49 141/227/49
f 103/143/50 105/147/50 169/224/50 167/228/50
f 78/93/51 76/89/51 140/229/51 142/225/51
f 104/145/52 102/141/52 166/230/52 168/226/52
f 68/71/53 128/193/53 192/231/53 132/232/53
f 75/87/51 77/91/51 141/227/51 139/233/51
f 101/139/52 103/143/52 167/228/52 165/234/52
f 127/191/53 65/68/53 129/235/53 191/236/53
f 76/89/54 74/85/54 138/237/54 140/229/54
f 102/141/55 100/137/55 164/238/55 166/230/55
f 128/193/56 126/189/56 190/239/56 192/231/56
f 73/83/54 75/87/54 139/233/54 137/240/54
f 99/135/55 101/139/55 165/234/55 163/241/55
f 125/187/56 127/191/56 191/236/56 189/242/56
f 74/85/57 72/81/57 136/243/57 138/237/57
f 100/137/58 98/133/58 162/244/58 164/238/58
f 126/189/59 124/185/59 188/245/59 190/239/59
f 71/79/57 73/83/57 137/240/57 135/246/57
f 97/131/58 99/135/58 163/241/58 161/247/58
f 123/183/59 125/187/59 189/242/59 187/248/59
f 72/81/60 70/77/60 134/249/60 136/243/60
f 98/133/61 96/129/61 160/250/61 162/244/61
f 124/185/62 122/181/62 186/251/62 188/245/62
f 69/75/60 71/79/60 135/246/60 133/252/60
f 95/127/61 97/131/61 161/247/61 159/253/61
f 121/179/62 123/183/62 187/248/62 185/254/62
f 70/77/63 67/72/63 131/255/63 134/249/63
f 96/129/64 94/125/64 158/256/64 160/250/64
f 122/181/65 120/177/65 184/257/65 186/251/65
f 66/67/63 69/75/63 133/252/63 130/258/63
f 93/123/64 95/127/64 159/253/64 157/195/64
f 119/175/65 121/179/65 185/254/65 183/197/65
f 67/72/66 68/71/66 132/232/66 131/255/66
f 94/125/35 92/121/35 156/200/35 158/256/35
f 120/177/36 118/173/36 182/202/36 184/257/36
f 65/68/66 66/67/66 130/258/66 129/235/66
f 194/259/67 129/235/67 130/258/67
f 193/260/68 131/255/68 132/232/68
f 194/261/67 130/258/67 133/252/67
f 193/262/68 134/249/68 131/255/68
f 194/263/67 133/252/67 135/246/67
f 193/264/68 136/243/68 134/249/68
f 194/265/67 135/246/67 137/240/67
f 193/266/68 138/237/68 136/243/68
f 194/267/67 137/240/67 139/233/67
f 193/268/68 140/229/68 138/237/68
f 194/269/67 139/233/67 141/227/67
f 193/270/68 142/225/68 140/229/68
f 194/271/67 141/227/67 143/223/67
f 193/272/68 144/221/68 142/225/68
f 194/273/67 143/223/67 145/219/67
f 193/274/68 146/217/68 144/221/68
f 194/275/67 145/219/67 147/215/67
f 193/276/68 148/213/68 146/217/68
f 194/277/67 147/215/67 149/211/67
f 193/278/68 150/209/68 148/213/68
f 194/279/67 149/211/67 151/207/67
f 193/280/68 152/205/68 150/209/68
f 194/281/67 151/207/67 153/203/67
f 193/282/68 154/199/68 152/205/68
f 194/283/67 153/203/67 155/196/67
f 193/284/68 156/200/68 154/199/68
f 194/285/67 155/196/67 157/195/67
f 193/286/68 158/256/68 156/200/68
f 194/287/67 157/195/67 159/253/67
f 193/288/68 160/250/68 158/256/68
f 194/289/67 159/253/67 161/247/67
f 193/290/68 162/244/68 160/250/68
f 194/291/67 161/247/67 163/241/67
f 193/292/68 164/238/68 162/244/68
f 194/293/67 163/241/67 165/234/67
f 193/294/68 166/230/68 164/238/68
f 194/295/67 165/234/67 167/228/67
f 193/296/68 168/226/68 166/230/68
f 194/297/67 167/228/67 169/224/67
f 193/298/68 170/222/68 168/226/68
f 194/299/67 169/224/67 171/220/67
f 193/300/68 172/218/68 170/222/68
f 194/301/67 171/220/67 173/216/67
f 193/302/68 174/214/68 172/218/68
f 194/303/67 173/216/67 175/212/67
f 193/304/68 176/210/68 174/214/68
f 194/305/67 175/212/67 177/208/67
f 193/306/68 178/206/68 176/210/68
f 194/307/67 177/208/67 179/204/67
f 193/308/68 180/201/68 178/206/68
f 194/309/67 179/204/67 181/198/67
f 193/310/68 182/202/68 180/201/68
f 194/311/67 181/198/67 183/197/67
f 193/312/68 184/257/68 182/202/68
f 194/313/67 183/197/67 185/254/67
f 193/314/68 186/251/68 184/257/68
f 194/315/67 185/254/67 187/248/67
f 193/316/68 188/245/68 186/251/68
f 194/317/67 187/248/67 189/242/67
f 193/318/68 190/239/68 188/245/68
f 194/319/67 189/242/67 191/236/67
f 193/320/68 192/231/68 190/239/68
f 194/321/67 191/236/67 129/235/67
f 193/322/68 132/232/68 192/231/68
