# Blender v2.93.1 OBJ File: 'signos.blend'
# www.blender.org
mtllib hexagon.mtl
o Cube.002_Cube.003
v -1.000000 -0.588190 0.326732
v -1.000000 0.000000 0.697826
v -1.000000 0.588190 0.326732
v -1.000000 0.000000 -0.697826
v -1.000000 -0.588190 -0.326732
v -1.000000 0.588190 -0.326732
v 1.000000 0.000000 0.697826
v 1.000000 -0.588190 0.326732
v 1.000000 0.588190 0.326732
v 1.000000 -0.588190 -0.326732
v 1.000000 0.000000 -0.697826
v 1.000000 0.588190 -0.326732
v 1.000000 0.000000 -1.000000
v 1.000000 -0.843752 -0.467670
v -1.000000 -0.843752 -0.467670
v -1.000000 0.000000 -1.000000
v -1.000000 0.000000 1.000000
v -1.000000 -0.843752 0.467670
v 1.000000 -0.843752 0.467670
v 1.000000 0.000000 1.000000
v -1.000000 0.843752 0.467670
v -1.000000 0.843752 -0.467670
v 1.000000 0.843752 -0.467670
v 1.000000 0.843752 0.467670
v 0.401604 -0.588190 -0.326732
v 0.401604 0.000000 -0.697826
v 0.401604 0.588190 -0.326732
v 0.401604 0.588190 0.326732
v 0.401604 0.000000 0.697826
v 0.401604 -0.588190 0.326732
v -0.401604 -0.588190 0.326732
v -0.401604 0.000000 0.697826
v -0.401604 0.588190 0.326732
v -0.401604 0.588190 -0.326732
v -0.401604 0.000000 -0.697826
v -0.401604 -0.588190 -0.326732
vt 0.625000 0.571503
vt 0.875000 0.571503
vt 0.875000 0.678497
vt 0.625000 0.678497
vt 0.375000 0.571503
vt 0.125000 0.571503
vt 0.125000 0.500000
vt 0.375000 0.500000
vt 0.625000 0.250000
vt 0.625000 0.500000
vt 0.553497 0.500000
vt 0.553497 0.250000
vt 0.125000 0.678497
vt 0.375000 0.678497
vt 0.375000 0.750000
vt 0.125000 0.750000
vt 0.625000 0.750000
vt 0.625000 1.000000
vt 0.553497 1.000000
vt 0.553497 0.750000
vt 0.532142 0.538801
vt 0.418147 0.586576
vt 0.407575 0.163424
vt 0.467858 0.211199
vt 0.446503 0.250000
vt 0.375000 0.178497
vt 0.532142 0.038801
vt 0.418147 0.086576
vt 0.375000 0.071503
vt 0.553497 0.000000
vt 0.407575 0.663423
vt 0.467858 0.711199
vt 0.446503 0.750000
vt 0.581853 0.163424
vt 0.592425 0.086576
vt 0.625000 0.071503
vt 0.625000 0.178497
vt 0.592425 0.586576
vt 0.581853 0.663423
vt 0.418147 0.586576
vt 0.532142 0.538801
vt 0.592425 0.586576
vt 0.581853 0.663423
vt 0.467858 0.711199
vt 0.407575 0.663423
vt 0.418147 0.086576
vt 0.532142 0.038801
vt 0.592425 0.086576
vt 0.581853 0.163424
vt 0.467858 0.211199
vt 0.407575 0.163424
vn 0.0000 1.0000 0.0000
vn 0.0000 -0.5336 -0.8457
vn 0.0000 0.5336 -0.8457
vn 0.0000 -0.5336 0.8457
vn 0.0000 0.5336 0.8457
vn 0.0000 -1.0000 0.0000
vn 1.0000 0.0000 0.0000
vn -1.0000 0.0000 0.0000
usemtl None
s off
f 23/1/1 22/2/1 21/3/1 24/4/1
f 14/5/2 15/6/2 16/7/2 13/8/2
f 22/9/3 23/10/3 13/11/3 16/12/3
f 18/13/4 19/14/4 20/15/4 17/16/4
f 24/17/5 21/18/5 17/19/5 20/20/5
f 15/6/6 14/5/6 19/14/6 18/13/6
f 11/21/7 10/22/7 14/5/7 13/11/7
f 5/23/8 4/24/8 16/25/8 15/26/8
f 2/27/8 1/28/8 18/29/8 17/30/8
f 8/31/7 7/32/7 20/33/7 19/14/7
f 1/28/8 5/23/8 15/26/8 18/29/8
f 10/22/7 8/31/7 19/14/7 14/5/7
f 6/34/8 3/35/8 21/36/8 22/37/8
f 12/38/7 11/21/7 13/11/7 23/1/7
f 3/35/8 2/27/8 17/30/8 21/36/8
f 9/39/7 12/38/7 23/1/7 24/4/7
f 4/24/8 6/34/8 22/37/8 16/25/8
f 7/32/7 9/39/7 24/4/7 20/33/7
f 25/40/7 26/41/7 27/42/7 28/43/7 29/44/7 30/45/7
f 11/21/5 26/41/5 25/40/5 10/22/5
f 12/38/4 27/42/4 26/41/4 11/21/4
f 9/39/6 28/43/6 27/42/6 12/38/6
f 7/32/2 29/44/2 28/43/2 9/39/2
f 8/31/3 30/45/3 29/44/3 7/32/3
f 10/22/1 25/40/1 30/45/1 8/31/1
f 31/46/8 32/47/8 33/48/8 34/49/8 35/50/8 36/51/8
f 2/27/3 32/47/3 31/46/3 1/28/3
f 3/35/2 33/48/2 32/47/2 2/27/2
f 6/34/6 34/49/6 33/48/6 3/35/6
f 4/24/4 35/50/4 34/49/4 6/34/4
f 5/23/5 36/51/5 35/50/5 4/24/5
f 1/28/1 31/46/1 36/51/1 5/23/1
