# Blender v2.93.1 OBJ File: 'signos.blend'
# www.blender.org
mtllib n0.mtl
o Cube.010
v 5.447883 2.261781 0.487755
v 5.462942 0.261837 0.487755
v 5.447883 2.261781 -0.487755
v 5.462942 0.261837 -0.487755
v 4.259884 2.252835 0.487755
v 4.274944 0.252892 0.487755
v 4.259884 2.252835 -0.487755
v 4.274944 0.252892 -0.487755
v 4.302387 -3.391640 -0.487755
v 5.490386 -3.382694 -0.487755
v 5.490386 -3.382694 0.487755
v 4.302387 -3.391640 0.487755
v 3.874391 -4.210830 -0.487755
v 4.959237 -4.202661 -0.487755
v 4.959237 -4.202661 0.487755
v 3.874391 -4.210830 0.487755
v 0.662110 -3.292773 -0.487755
v 0.669205 -4.234964 -0.487755
v 0.669205 -4.234964 0.487755
v 0.662110 -3.292773 0.487755
v 5.432319 4.328689 -0.487755
v 4.244320 4.319744 -0.487755
v 4.244320 4.319744 0.487755
v 5.432319 4.328689 0.487755
v 5.014532 5.126440 -0.487755
v 4.236142 5.405881 -0.487755
v 4.236142 5.405881 0.487755
v 5.014532 5.126440 0.487755
v 0.689016 4.292972 0.487755
v 0.819953 5.380157 0.487755
v 0.819953 5.380157 -0.487755
v 0.689016 4.292972 -0.487755
v -0.407536 4.284715 0.487755
v -0.168754 5.130057 0.487755
v -0.168754 5.130057 -0.487755
v -0.407536 4.284715 -0.487755
v 0.679888 0.963791 0.487755
v -0.382466 0.955496 0.487755
v -0.382466 0.955496 -0.487755
v 0.679888 0.963791 -0.487755
v 0.690514 0.181064 0.499701
v -0.363371 0.236077 0.474848
v -0.339635 0.199844 -0.499701
v 0.714251 0.144831 -0.474848
v 0.712072 1.032894 0.487755
v 0.718712 0.151055 0.487755
v 0.718712 0.151055 -0.487755
v 0.712072 1.032894 -0.487755
v -0.298351 -3.284418 -0.487755
v -0.295305 -3.688910 -0.487755
v -0.295305 -3.688910 0.487755
v -0.298351 -3.284418 0.487755
v -0.327061 -3.283459 0.482477
v 0.607502 -3.276422 0.507330
v -0.303598 -3.283283 -0.492071
v 0.630965 -3.276245 -0.467218
vt 0.375000 0.000000
vt 0.625000 0.000000
vt 0.625000 0.250000
vt 0.375000 0.250000
vt 0.625000 0.500000
vt 0.375000 0.500000
vt 0.625000 0.750000
vt 0.375000 0.750000
vt 0.625000 1.000000
vt 0.375000 1.000000
vt 0.125000 0.500000
vt 0.375000 0.500000
vt 0.375000 0.750000
vt 0.125000 0.750000
vt 0.875000 0.500000
vt 0.875000 0.500000
vt 0.625000 0.500000
vt 0.875000 0.750000
vt 0.875000 0.750000
vt 0.625000 0.750000
vt 0.625000 0.500000
vt 0.875000 0.500000
vt 0.875000 0.750000
vt 0.625000 0.750000
vt 0.375000 0.750000
vt 0.375000 0.750000
vt 0.375000 0.500000
vt 0.375000 0.500000
vt 0.625000 0.500000
vt 0.625000 0.500000
vt 0.625000 0.750000
vt 0.625000 0.750000
vt 0.375000 0.500000
vt 0.125000 0.500000
vt 0.125000 0.500000
vt 0.375000 0.750000
vt 0.125000 0.750000
vt 0.125000 0.750000
vt 0.375000 0.750000
vt 0.375000 0.750000
vt 0.375000 0.500000
vt 0.375000 0.500000
vt 0.375000 0.750000
vt 0.375000 0.750000
vt 0.375000 0.500000
vt 0.375000 0.500000
vt 0.375000 0.500000
vt 0.375000 0.750000
vt 0.375000 0.750000
vt 0.375000 0.500000
vt 0.375000 0.750000
vt 0.375000 0.750000
vt 0.375000 0.500000
vt 0.375000 0.500000
vt 0.375000 0.750000
vt 0.375000 0.500000
vt 0.625000 0.500000
vt 0.625000 0.500000
vt 0.625000 0.750000
vt 0.625000 0.750000
vt 0.375000 0.750000
vt 0.375000 0.500000
vn 1.0000 0.0075 0.0000
vn 0.0000 0.0000 -1.0000
vn -1.0000 -0.0075 0.0000
vn 0.0000 0.0000 1.0000
vn 0.3379 0.9412 0.0000
vn 0.0075 -1.0000 0.0000
vn 0.8393 -0.5437 0.0000
vn 0.0271 0.9996 0.0000
vn -0.9623 0.2718 0.0000
vn 0.8859 0.4639 0.0000
vn -0.0075 1.0000 0.0000
vn -0.2452 0.9695 0.0000
vn 0.9994 -0.0241 0.0246
vn 1.0000 -0.0027 0.0000
vn -0.0118 -0.0009 0.9999
vn -0.9991 -0.0418 -0.0114
vn 0.0117 -0.0000 -0.9999
vn 0.1885 0.0090 0.9820
vn -0.5847 -0.8112 0.0080
vn -0.3054 -0.0146 -0.9521
vn -0.9065 0.4222 0.0000
vn -0.4927 -0.8702 0.0000
vn 0.0087 1.0000 0.0000
vn -0.9997 -0.0104 -0.0240
vn 0.0249 -0.0024 -0.9997
vn -0.0249 0.0024 0.9997
usemtl None
s off
f 1/1/1 2/2/1 4/3/1 3/4/1
f 3/4/2 4/3/2 8/5/2 7/6/2
f 7/6/3 8/5/3 6/7/3 5/8/3
f 5/8/4 6/7/4 2/9/4 1/10/4
f 25/11/5 26/12/5 27/13/5 28/14/5
f 4/15/2 10/16/2 9/17/2 8/5/2
f 2/18/1 11/19/1 10/16/1 4/15/1
f 6/7/4 12/20/4 11/19/4 2/18/4
f 8/5/3 9/17/3 12/20/3 6/7/3
f 13/21/6 14/22/6 15/23/6 16/24/6
f 10/16/2 14/22/2 13/21/2 9/17/2
f 11/19/7 15/23/7 14/22/7 10/16/7
f 12/20/4 16/24/4 15/23/4 11/19/4
f 45/25/1 46/26/1 47/27/1 48/28/1
f 13/21/2 18/29/2 17/30/2 9/17/2
f 16/24/6 19/31/6 18/29/6 13/21/6
f 12/20/4 20/32/4 19/31/4 16/24/4
f 9/17/8 17/30/8 20/32/8 12/20/8
f 7/6/2 22/33/2 21/34/2 3/35/2
f 5/8/3 23/36/3 22/33/3 7/6/3
f 1/37/4 24/38/4 23/36/4 5/8/4
f 3/35/1 21/34/1 24/38/1 1/37/1
f 22/33/2 26/12/2 25/11/2 21/34/2
f 33/39/9 34/40/9 35/41/9 36/42/9
f 24/38/4 28/14/4 27/13/4 23/36/4
f 21/34/10 25/11/10 28/14/10 24/38/10
f 27/13/4 30/43/4 29/44/4 23/36/4
f 26/12/11 31/45/11 30/43/11 27/13/11
f 22/33/2 32/46/2 31/45/2 26/12/2
f 23/36/6 29/44/6 32/46/6 22/33/6
f 30/43/4 34/40/4 33/39/4 29/44/4
f 31/45/12 35/41/12 34/40/12 30/43/12
f 32/46/2 36/42/2 35/41/2 31/45/2
f 44/47/13 41/48/13 54/49/13 56/50/13
f 33/39/4 38/51/4 37/52/4 29/44/4
f 36/42/3 39/53/3 38/51/3 33/39/3
f 32/46/2 40/54/2 39/53/2 36/42/2
f 29/44/14 37/52/14 40/54/14 32/46/14
f 38/51/15 42/55/15 41/48/15 37/52/15
f 39/53/16 43/56/16 42/55/16 38/51/16
f 40/54/17 44/47/17 43/56/17 39/53/17
f 41/48/18 46/26/18 45/25/18 37/52/18
f 44/47/19 47/27/19 46/26/19 41/48/19
f 40/54/20 48/28/20 47/27/20 44/47/20
f 37/52/21 45/25/21 48/28/21 40/54/21
f 49/57/3 50/58/3 51/59/3 52/60/3
f 18/29/2 50/58/2 49/57/2 17/30/2
f 19/31/22 51/59/22 50/58/22 18/29/22
f 20/32/4 52/60/4 51/59/4 19/31/4
f 17/30/23 49/57/23 52/60/23 20/32/23
f 54/49/6 53/61/6 55/62/6 56/50/6
f 42/55/24 43/56/24 55/62/24 53/61/24
f 43/56/25 44/47/25 56/50/25 55/62/25
f 41/48/26 42/55/26 53/61/26 54/49/26
