# Blender v2.93.1 OBJ File: 'signos.blend'
# www.blender.org
mtllib n2.mtl
o Cube.007
v 1.075350 -2.988071 0.590685
v -1.614988 2.485596 0.590685
v 1.075350 -2.988071 -0.590685
v -1.614988 2.485596 -0.590685
v 2.175288 -2.940150 0.590685
v -0.503652 3.106066 0.590685
v 2.175288 -2.940150 -0.590685
v -0.503652 3.106066 -0.590685
v -1.414468 1.535882 0.590685
v -1.414468 1.535882 -0.590685
v -0.354694 2.043992 -0.590685
v -0.354694 2.043992 0.590685
v 1.003531 -2.011361 -0.590685
v 2.008395 -1.859234 -0.590685
v 2.008395 -1.859234 0.590685
v 1.003531 -2.011361 0.590685
v -1.825845 -2.906106 0.590685
v -1.734532 -2.017034 0.590685
v -1.734532 -2.017034 -0.590685
v -1.825845 -2.906106 -0.590685
v 0.655198 2.313888 -0.590685
v 0.712326 3.296494 -0.590685
v 0.712326 3.296494 0.590685
v 0.655198 2.313888 0.590685
v 1.787553 1.690476 -0.590685
v 2.158628 2.440256 -0.590685
v 2.158628 2.440256 0.590685
v 1.787553 1.690476 0.590685
v -0.929199 0.661838 0.590685
v -0.929199 0.661839 -0.590685
v -0.032723 1.151392 -0.590685
v -0.032723 1.151392 0.590685
vt 0.575610 0.000000
vt 0.625000 0.000000
vt 0.625000 0.250000
vt 0.575610 0.250000
vt 0.625000 0.500000
vt 0.575610 0.500000
vt 0.575610 0.500000
vt 0.625000 0.500000
vt 0.625000 0.750000
vt 0.575610 0.750000
vt 0.575610 0.750000
vt 0.625000 0.750000
vt 0.625000 1.000000
vt 0.575610 1.000000
vt 0.125000 0.500000
vt 0.375000 0.500000
vt 0.375000 0.750000
vt 0.125000 0.750000
vt 0.875000 0.500000
vt 0.875000 0.750000
vt 0.543742 0.750000
vt 0.543742 1.000000
vt 0.543742 0.500000
vt 0.543742 0.250000
vt 0.543742 0.000000
vt 0.375000 0.250000
vt 0.415296 0.250000
vt 0.415296 0.500000
vt 0.415296 0.750000
vt 0.415296 1.000000
vt 0.375000 1.000000
vt 0.375000 0.000000
vt 0.415296 0.000000
vt 0.415296 0.250000
vt 0.375000 0.250000
vt 0.415296 0.000000
vt 0.375000 0.000000
vt 0.625000 0.500000
vt 0.575610 0.500000
vt 0.625000 0.750000
vt 0.575610 0.750000
vn -0.9784 -0.2066 0.0000
vn 0.0000 0.0000 -1.0000
vn 0.8962 -0.4436 0.0000
vn 0.0000 0.0000 1.0000
vn 0.0435 -0.9991 0.0000
vn -0.4875 0.8731 0.0000
vn 0.9407 0.3393 0.0000
vn -0.8743 -0.4854 0.0000
vn 0.9883 0.1526 0.0000
vn -0.9948 0.1022 0.0000
vn -0.0021 1.0000 0.0000
vn -0.0282 -0.9996 0.0000
vn -0.1547 0.9880 0.0000
vn 0.2582 -0.9661 0.0000
vn 0.5094 0.8605 0.0000
vn -0.4823 -0.8760 0.0000
vn -0.8104 -0.5859 0.0000
vn 0.8277 0.5612 0.0000
usemtl None
s off
f 9/1/1 2/2/1 4/3/1 10/4/1
f 10/4/2 4/3/2 8/5/2 11/6/2
f 25/7/3 26/8/3 27/9/3 28/10/3
f 12/11/4 6/12/4 2/13/4 9/14/4
f 3/15/5 7/16/5 5/17/5 1/18/5
f 8/5/6 4/19/6 2/20/6 6/12/6
f 32/21/4 12/11/4 9/14/4 29/22/4
f 31/23/7 11/6/7 12/11/7 32/21/7
f 30/24/2 10/4/2 11/6/2 31/23/2
f 29/25/8 9/1/8 10/4/8 30/24/8
f 3/26/2 13/27/2 14/28/2 7/16/2
f 7/16/9 14/28/9 15/29/9 5/17/9
f 5/17/4 15/29/4 16/30/4 1/31/4
f 17/32/10 18/33/10 19/34/10 20/35/10
f 16/36/4 18/33/4 17/32/4 1/37/4
f 13/27/11 19/34/11 18/33/11 16/36/11
f 3/26/2 20/35/2 19/34/2 13/27/2
f 1/37/12 17/32/12 20/35/12 3/26/12
f 8/5/2 22/38/2 21/39/2 11/6/2
f 6/12/13 23/40/13 22/38/13 8/5/13
f 12/11/4 24/41/4 23/40/4 6/12/4
f 11/6/14 21/39/14 24/41/14 12/11/14
f 22/38/2 26/8/2 25/7/2 21/39/2
f 23/40/15 27/9/15 26/8/15 22/38/15
f 24/41/4 28/10/4 27/9/4 23/40/4
f 21/39/16 25/7/16 28/10/16 24/41/16
f 16/36/17 29/25/17 30/24/17 13/27/17
f 13/27/2 30/24/2 31/23/2 14/28/2
f 14/28/18 31/23/18 32/21/18 15/29/18
f 15/29/4 32/21/4 29/22/4 16/30/4
