# Blender v2.93.1 OBJ File: 'signos.blend'
# www.blender.org
mtllib n3.mtl
o Cube.008
v -0.686936 -4.120564 0.521912
v -0.686936 3.535846 0.403389
v -0.686936 -4.863822 -1.000000
v -0.686936 3.955949 -0.821216
v 0.686936 -4.120564 0.521912
v 0.686936 3.535846 0.403389
v 0.686936 -4.863822 -1.000000
v 0.686936 3.955949 -0.821216
v -0.686936 1.866393 0.075595
v -0.686936 1.866393 -1.753746
v 0.686936 1.866393 -1.753746
v 0.686936 1.866393 0.075595
v -0.686936 -0.354708 0.104149
v 0.686936 -0.354708 0.104149
v 0.686936 -0.385508 1.893925
v -0.686936 -0.385507 1.893925
v -0.686936 -2.064794 -2.002632
v 0.686936 -2.064794 -2.002632
v 0.686936 -2.064794 -0.002632
v -0.686936 -2.064794 -0.002632
v -0.686936 -5.397146 1.732803
v 0.686936 -5.397146 1.732803
v 0.686936 -4.368110 2.061419
v -0.686936 -4.368110 2.061419
v 0.686936 4.707930 1.907813
v -0.686936 4.707930 1.907813
v -0.686936 3.903335 1.994594
v 0.686936 3.903335 1.994594
v -0.686936 -5.359388 4.314267
v 0.686936 -5.359388 4.314267
v 0.686936 -4.187065 4.053025
v -0.686936 -4.187065 4.053025
v 0.686936 4.369451 3.718055
v -0.686936 4.369451 3.718055
v -0.686936 3.587561 3.656297
v 0.686936 3.587561 3.656297
v -0.686936 0.744710 0.781322
v -0.686936 0.751575 -1.028290
v 0.686936 0.751575 -1.028290
v 0.686936 0.744710 0.781322
vt 0.560150 0.000000
vt 0.625000 0.000000
vt 0.625000 0.250000
vt 0.560150 0.250000
vt 0.625000 0.500000
vt 0.560150 0.500000
vt 0.625000 0.750000
vt 0.560150 0.750000
vt 0.625000 1.000000
vt 0.560150 1.000000
vt 0.125000 0.500000
vt 0.375000 0.500000
vt 0.375000 0.750000
vt 0.125000 0.750000
vt 0.524228 0.750000
vt 0.524228 1.000000
vt 0.524695 0.500000
vt 0.524695 0.250000
vt 0.524228 0.000000
vt 0.437363 0.000000
vt 0.488305 0.000000
vt 0.489240 0.250000
vt 0.437363 0.250000
vt 0.489240 0.500000
vt 0.437363 0.500000
vt 0.488305 0.750000
vt 0.437363 0.750000
vt 0.488305 1.000000
vt 0.437363 1.000000
vt 0.375000 0.750000
vt 0.375000 1.000000
vt 0.375000 0.500000
vt 0.375000 0.250000
vt 0.375000 0.000000
vt 0.375000 0.500000
vt 0.125000 0.500000
vt 0.125000 0.500000
vt 0.375000 0.750000
vt 0.125000 0.750000
vt 0.125000 0.750000
vt 0.875000 0.500000
vt 0.875000 0.500000
vt 0.625000 0.500000
vt 0.875000 0.750000
vt 0.875000 0.750000
vt 0.625000 0.750000
vt 0.625000 0.500000
vt 0.875000 0.500000
vt 0.875000 0.750000
vt 0.625000 0.750000
vn -1.0000 0.0000 0.0000
vn 0.0000 0.4075 -0.9132
vn 1.0000 -0.0000 0.0000
vn 0.0000 -0.1927 0.9813
vn 0.0000 0.2175 0.9761
vn 0.0000 0.5325 0.8464
vn 0.0000 -0.5454 -0.8382
vn 0.0000 0.7764 -0.6302
vn -0.0000 -0.7487 0.6629
vn 0.0000 0.2472 0.9690
vn 0.0000 -0.3372 -0.9414
vn 0.0000 -0.9815 -0.1915
vn 0.0000 0.9873 0.1588
vn 0.0000 0.9641 -0.2656
vn 0.0000 -0.9744 0.2250
vn 0.0000 -0.9999 0.0146
vn 0.0000 0.9959 -0.0905
vn 0.0000 -0.0787 0.9969
vn 0.0000 0.9830 0.1838
vn 0.0000 -0.9824 -0.1867
vn 0.0000 -0.7153 -0.6988
vn 0.0000 0.7015 0.7126
usemtl None
s off
f 9/1/1 2/2/1 4/3/1 10/4/1
f 10/4/2 4/3/2 8/5/2 11/6/2
f 11/6/3 8/5/3 6/7/3 12/8/3
f 12/8/4 6/7/4 2/9/4 9/10/4
f 29/11/5 30/12/5 31/13/5 32/14/5
f 40/15/6 12/8/6 9/10/6 37/16/6
f 39/17/3 11/6/3 12/8/3 40/15/3
f 38/18/7 10/4/7 11/6/7 39/17/7
f 37/19/1 9/1/1 10/4/1 38/18/1
f 20/20/1 16/21/1 13/22/1 17/23/1
f 17/23/8 13/22/8 14/24/8 18/25/8
f 18/25/3 14/24/3 15/26/3 19/27/3
f 19/27/9 15/26/9 16/28/9 20/29/9
f 5/30/10 19/27/10 20/29/10 1/31/10
f 7/32/3 18/25/3 19/27/3 5/30/3
f 3/33/11 17/23/11 18/25/11 7/32/11
f 1/34/1 20/20/1 17/23/1 3/33/1
f 7/32/12 22/35/12 21/36/12 3/37/12
f 5/30/3 23/38/3 22/35/3 7/32/3
f 1/39/13 24/40/13 23/38/13 5/30/13
f 3/37/1 21/36/1 24/40/1 1/39/1
f 4/41/14 26/42/14 25/43/14 8/5/14
f 2/44/1 27/45/1 26/42/1 4/41/1
f 6/7/15 28/46/15 27/45/15 2/44/15
f 8/5/3 25/43/3 28/46/3 6/7/3
f 22/35/16 30/12/16 29/11/16 21/36/16
f 23/38/3 31/13/3 30/12/3 22/35/3
f 24/40/17 32/14/17 31/13/17 23/38/17
f 21/36/1 29/11/1 32/14/1 24/40/1
f 33/47/18 34/48/18 35/49/18 36/50/18
f 26/42/19 34/48/19 33/47/19 25/43/19
f 27/45/1 35/49/1 34/48/1 26/42/1
f 28/46/20 36/50/20 35/49/20 27/45/20
f 25/43/3 33/47/3 36/50/3 28/46/3
f 16/21/1 37/19/1 38/18/1 13/22/1
f 13/22/21 38/18/21 39/17/21 14/24/21
f 14/24/3 39/17/3 40/15/3 15/26/3
f 15/26/22 40/15/22 37/16/22 16/28/22
