# Blender v2.93.1 OBJ File: 'signos.blend'
# www.blender.org
mtllib n5.mtl
o Cube.007
v -0.180897 3.438778 0.590685
v 2.944316 -1.579022 0.590685
v -0.180897 3.438778 -0.590685
v 2.944316 -1.579022 -0.590685
v -1.280078 3.375826 0.590685
v 2.134406 -2.548767 0.590685
v -1.280078 3.375826 -0.590685
v 2.134406 -2.548767 -0.590685
v 2.676579 -0.444011 0.590685
v 2.676579 -0.444011 -0.590685
v 2.108574 -1.431600 -0.590685
v 2.108574 -1.431600 0.590685
v -0.095734 2.463140 -0.590685
v -1.098424 2.297292 -0.590685
v -1.098424 2.297292 0.590685
v -0.095734 2.463140 0.590685
v 2.721147 3.396478 0.590685
v 2.641996 2.506241 0.590685
v 2.641996 2.506241 -0.590685
v 2.721147 3.396478 -0.590685
v 0.623857 -2.117066 -0.590685
v 0.577938 -2.937359 -0.590685
v 0.577938 -2.937359 0.590685
v 0.623857 -2.117066 0.590685
v -0.234396 -1.678634 -0.590685
v -0.879933 -2.100971 -0.590685
v -0.879933 -2.100971 0.590685
v -0.234396 -1.678634 0.590685
v 2.221668 0.706931 0.590685
v 2.221669 0.706931 -0.590685
v 1.326580 0.221186 -0.590685
v 1.326580 0.221186 0.590685
v -0.843439 -1.188243 -0.590685
v -1.393083 -1.549476 -0.548156
v -1.393083 -1.549476 0.633213
v -0.843439 -1.188243 0.590685
v 0.056396 1.290996 -0.590685
v -0.892493 0.566022 -0.590685
v -0.892493 0.566022 0.590685
v 0.056396 1.290996 0.590685
v 0.984063 1.262348 0.590685
v 0.984063 1.262348 -0.590685
v 0.465527 0.641753 -0.590685
v 0.465527 0.641753 0.590685
vt 0.565492 0.000000
vt 0.604220 0.000000
vt 0.604220 0.250000
vt 0.565492 0.250000
vt 0.625000 0.500000
vt 0.575610 0.500000
vt 0.415296 0.750000
vt 0.476457 0.750000
vt 0.476457 1.000000
vt 0.415296 1.000000
vt 0.575610 0.750000
vt 0.625000 0.750000
vt 0.604220 1.000000
vt 0.565492 1.000000
vt 0.125000 0.500000
vt 0.375000 0.500000
vt 0.375000 0.750000
vt 0.125000 0.750000
vt 0.919239 0.500000
vt 0.919239 0.750000
vt 0.537617 0.750000
vt 0.537617 1.000000
vt 0.537617 0.500000
vt 0.537617 0.250000
vt 0.537617 0.000000
vt 0.375000 0.250000
vt 0.415296 0.250000
vt 0.415296 0.500000
vt 0.375000 1.000000
vt 0.375000 0.000000
vt 0.415296 0.000000
vt 0.415296 0.250000
vt 0.375000 0.250000
vt 0.415296 0.000000
vt 0.375000 0.000000
vt 0.625000 0.500000
vt 0.575610 0.500000
vt 0.625000 0.750000
vt 0.575610 0.750000
vt 0.625000 0.500000
vt 0.575610 0.500000
vt 0.625000 0.750000
vt 0.575610 0.750000
vt 0.507037 0.000000
vt 0.507037 0.250000
vt 0.507037 0.500000
vt 0.507037 0.750000
vt 0.507037 1.000000
vt 0.575610 0.500000
vt 0.625000 0.500000
vt 0.625000 0.750000
vt 0.575610 0.750000
vt 0.476457 0.500000
vt 0.476457 0.250000
vt 0.476457 0.000000
vn 0.9733 0.2296 0.0000
vn -0.0000 0.0000 -1.0000
vn 0.0000 0.0000 1.0000
vn -0.0572 0.9984 0.0000
vn 0.7675 -0.6410 0.0000
vn -0.9039 -0.4277 0.0000
vn 0.9300 0.3676 0.0000
vn -0.9861 -0.1661 0.0000
vn 0.9961 -0.0886 0.0000
vn 0.0157 -0.9999 0.0000
vn 0.0146 0.9999 0.0000
vn 0.2422 -0.9702 0.0000
vn -0.4192 0.9079 0.0000
vn -0.4976 -0.8674 0.0000
vn 0.4549 0.8905 0.0000
vn 0.4094 0.9123 0.0000
vn -0.4389 -0.8985 0.0000
vn -0.5492 0.8357 0.0000
vn -0.0365 0.0015 -0.9993
vn -0.7321 -0.6812 0.0000
vn 0.0365 -0.0015 0.9993
vn 0.6272 0.7789 0.0000
vn -0.9930 -0.1181 0.0000
vn 0.9917 0.1287 0.0000
vn 0.0557 -0.9984 0.0000
vn 0.0309 0.9995 0.0000
usemtl None
s off
f 9/1/1 2/2/1 4/3/1 10/4/1
f 10/4/2 4/3/2 8/5/2 11/6/2
f 15/7/3 39/8/3 40/9/3 16/10/3
f 12/11/3 6/12/3 2/13/3 9/14/3
f 3/15/4 7/16/4 5/17/4 1/18/4
f 8/5/5 4/19/5 2/20/5 6/12/5
f 32/21/3 12/11/3 9/14/3 29/22/3
f 31/23/6 11/6/6 12/11/6 32/21/6
f 30/24/2 10/4/2 11/6/2 31/23/2
f 29/25/7 9/1/7 10/4/7 30/24/7
f 3/26/2 13/27/2 14/28/2 7/16/2
f 7/16/8 14/28/8 15/7/8 5/17/8
f 5/17/3 15/7/3 16/10/3 1/29/3
f 17/30/9 18/31/9 19/32/9 20/33/9
f 16/34/3 18/31/3 17/30/3 1/35/3
f 13/27/10 19/32/10 18/31/10 16/34/10
f 3/26/2 20/33/2 19/32/2 13/27/2
f 1/35/11 17/30/11 20/33/11 3/26/11
f 8/5/2 22/36/2 21/37/2 11/6/2
f 6/12/12 23/38/12 22/36/12 8/5/12
f 12/11/3 24/39/3 23/38/3 6/12/3
f 11/6/13 21/37/13 24/39/13 12/11/13
f 22/36/2 26/40/2 25/41/2 21/37/2
f 23/38/14 27/42/14 26/40/14 22/36/14
f 24/39/3 28/43/3 27/42/3 23/38/3
f 21/37/15 25/41/15 28/43/15 24/39/15
f 41/44/16 29/25/16 30/24/16 42/45/16
f 42/45/2 30/24/2 31/23/2 43/46/2
f 43/46/17 31/23/17 32/21/17 44/47/17
f 44/47/3 32/21/3 29/22/3 41/48/3
f 33/49/18 34/50/18 35/51/18 36/52/18
f 26/40/19 34/50/19 33/49/19 25/41/19
f 27/42/20 35/51/20 34/50/20 26/40/20
f 28/43/21 36/52/21 35/51/21 27/42/21
f 25/41/22 33/49/22 36/52/22 28/43/22
f 14/28/23 38/53/23 39/8/23 15/7/23
f 13/27/2 37/54/2 38/53/2 14/28/2
f 16/34/24 40/55/24 37/54/24 13/27/24
f 39/8/3 44/47/3 41/48/3 40/9/3
f 38/53/25 43/46/25 44/47/25 39/8/25
f 37/54/2 42/45/2 43/46/2 38/53/2
f 40/55/26 41/44/26 42/45/26 37/54/26
