# Blender v2.93.1 OBJ File: 'signos.blend'
# www.blender.org
mtllib n7.mtl
o Cube.006_Cube
v -0.615103 -1.700554 1.510377
v -0.615103 1.782637 -0.262107
v -0.615103 -1.726244 0.707802
v -0.615103 1.744632 -1.087523
v 0.615103 -1.700554 1.510377
v 0.615103 1.782637 -0.262107
v 0.615103 -1.726244 0.707802
v 0.615103 1.744632 -1.087523
v -0.615103 1.131510 0.099543
v -0.615103 0.857437 -0.658706
v 0.615103 0.857437 -0.658706
v 0.615103 1.131510 0.099543
v 0.615103 1.118862 1.593069
v 0.615103 1.770802 1.640661
v -0.615103 1.770802 1.640661
v -0.615103 1.118862 1.593069
vt 0.573991 0.000000
vt 0.625000 0.000000
vt 0.625000 0.250000
vt 0.573991 0.250000
vt 0.625000 0.500000
vt 0.573991 0.500000
vt 0.625000 0.750000
vt 0.573991 0.750000
vt 0.125000 0.500000
vt 0.375000 0.500000
vt 0.375000 0.750000
vt 0.125000 0.750000
vt 0.875000 0.500000
vt 0.875000 0.750000
vt 0.573991 1.000000
vt 0.375000 1.000000
vt 0.375000 0.250000
vt 0.375000 0.000000
vt 0.573991 0.750000
vt 0.625000 0.750000
vt 0.625000 1.000000
vt 0.573991 1.000000
vt 0.625000 1.000000
vn -1.0000 0.0000 0.0000
vn 0.0000 -0.4352 -0.9003
vn 1.0000 0.0000 0.0000
vn 0.0000 -0.9995 0.0320
vn 0.0000 0.9989 -0.0460
vn 0.0000 0.4459 0.8951
vn 0.0000 -0.4675 -0.8840
vn 0.0000 -0.0728 0.9973
vn 0.0000 1.0000 0.0062
vn 0.0000 -1.0000 -0.0085
usemtl None
s off
f 9/1/1 2/2/1 4/3/1 10/4/1
f 10/4/2 4/3/2 8/5/2 11/6/2
f 11/6/3 8/5/3 6/7/3 12/8/3
f 3/9/4 7/10/4 5/11/4 1/12/4
f 8/5/5 4/13/5 2/14/5 6/7/5
f 5/11/6 12/8/6 9/15/6 1/16/6
f 7/10/3 11/6/3 12/8/3 5/11/3
f 3/17/7 10/4/7 11/6/7 7/10/7
f 1/18/1 9/1/1 10/4/1 3/17/1
f 13/19/8 14/20/8 15/21/8 16/22/8
f 6/7/3 14/20/3 13/19/3 12/8/3
f 2/23/9 15/21/9 14/20/9 6/7/9
f 9/15/1 16/22/1 15/21/1 2/23/1
f 12/8/10 13/19/10 16/22/10 9/15/10
