# Blender v2.93.1 OBJ File: 'signos.blend'
# www.blender.org
mtllib square holo.mtl
o Cube_Cube.001
v 0.804344 -0.268727 -0.829043
v 0.804344 -0.268727 0.829043
v 0.623293 -0.268727 -0.642432
v 0.623293 -0.268727 0.642432
v -0.804344 -0.268727 -0.829043
v -0.623293 -0.268727 -0.642432
v -0.804344 -0.268727 0.829043
v -0.623293 -0.268727 0.642432
v 0.623293 0.143269 -0.642432
v 0.623293 0.143269 0.642432
v -0.623293 0.143269 0.642432
v -0.623293 0.143269 -0.642432
v 0.804344 0.143269 0.829043
v 0.804344 0.143269 -0.829043
v -0.804344 0.143269 0.829043
v -0.804344 0.143269 -0.829043
vt 0.153137 0.528137
vt 0.153137 0.721863
vt 0.125000 0.750000
vt 0.125000 0.500000
vt 0.153137 0.528137
vt 0.153137 0.721863
vt 0.125000 0.750000
vt 0.125000 0.500000
vt 0.375000 0.750000
vt 0.375000 0.750000
vt 0.346863 0.721864
vt 0.346864 0.528137
vt 0.375000 0.500000
vt 0.346863 0.721864
vt 0.346864 0.528137
vt 0.375000 0.500000
vn 0.0000 -1.0000 0.0000
vn -1.0000 0.0000 0.0000
vn 1.0000 0.0000 0.0000
vn 0.0000 0.0000 -1.0000
vn 0.0000 0.0000 1.0000
vn 0.0000 1.0000 0.0000
usemtl None
s off
f 4/1/1 3/2/1 1/3/1 2/4/1
f 10/5/2 9/6/2 3/2/2 4/1/2
f 14/7/3 13/8/3 2/4/3 1/3/3
f 16/9/4 14/7/4 1/3/4 5/10/4
f 6/11/1 8/12/1 7/13/1 5/10/1
f 12/14/3 11/15/3 8/12/3 6/11/3
f 11/15/4 10/5/4 4/1/4 8/12/4
f 15/16/2 16/9/2 5/10/2 7/13/2
f 8/12/1 4/1/1 2/4/1 7/13/1
f 9/6/5 12/14/5 6/11/5 3/2/5
f 13/8/5 15/16/5 7/13/5 2/4/5
f 3/2/1 6/11/1 5/10/1 1/3/1
f 10/5/6 13/8/6 14/7/6 9/6/6
f 11/15/6 15/16/6 13/8/6 10/5/6
f 12/14/6 16/9/6 15/16/6 11/15/6
f 9/6/6 14/7/6 16/9/6 12/14/6
