# Blender v2.93.1 OBJ File: 'signos.blend'
# www.blender.org
mtllib star holo.mtl
o Cube.003_Cube.004
v -1.177120 -0.275108 0.373011
v -0.495895 -0.432760 0.373011
v -0.642896 -0.885005 0.373011
v -0.204361 -0.675750 0.373011
v -0.285194 1.137102 0.373011
v -0.427035 0.517950 0.373011
v -0.909405 0.632993 0.373011
v -0.654949 0.204310 0.373011
v -0.204361 -0.675750 -0.373011
v -0.642896 -0.885005 -0.373011
v -0.495895 -0.432760 -0.373011
v -1.177120 -0.275108 -0.373011
v -0.654949 0.204310 -0.373011
v -0.909405 0.632992 -0.373011
v -0.427035 0.517950 -0.373011
v -0.285194 1.137102 -0.373011
v 0.285194 -1.137102 0.373011
v 0.427035 -0.517950 0.373011
v 0.909405 -0.632993 0.373011
v 0.654949 -0.204310 0.373011
v 1.177120 0.275108 0.373011
v 0.495895 0.432760 0.373011
v 0.642896 0.885005 0.373011
v 0.204361 0.675750 0.373011
v 0.654949 -0.204310 -0.373011
v 0.909405 -0.632992 -0.373011
v 0.427035 -0.517950 -0.373011
v 0.285194 -1.137102 -0.373011
v 0.204361 0.675750 -0.373011
v 0.642896 0.885005 -0.373011
v 0.495895 0.432760 -0.373011
v 1.177120 0.275108 -0.373011
v -1.095324 -1.400921 -0.373011
v -0.255115 -1.000000 -0.373011
v -0.255115 -1.000000 0.373011
v -1.095324 -1.400921 0.373011
v -0.844729 -0.629973 0.373011
v -1.738685 -0.423089 0.373011
v -1.738685 -0.423089 -0.373011
v -0.844729 -0.629973 -0.373011
v -0.629973 0.844729 0.373011
v -0.443564 1.658428 0.373011
v -0.443564 1.658428 -0.373011
v -0.629973 0.844729 -0.373011
v -1.468717 1.044764 -0.373011
v -1.000000 0.255115 -0.373011
v -1.000000 0.255115 0.373011
v -1.468717 1.044764 0.373011
v 0.629973 -0.844729 0.373011
v 0.443564 -1.658428 0.373011
v 0.443564 -1.658428 -0.373011
v 0.629973 -0.844729 -0.373011
v 1.468717 -1.044764 -0.373011
v 1.000000 -0.255115 -0.373011
v 1.000000 -0.255115 0.373011
v 1.468717 -1.044764 0.373011
v 1.095324 1.400921 -0.373011
v 0.255115 1.000000 -0.373011
v 0.255115 1.000000 0.373011
v 1.095324 1.400921 0.373011
v 0.844729 0.629973 0.373011
v 1.738685 0.423089 0.373011
v 1.738685 0.423089 -0.373011
v 0.844729 0.629973 -0.373011
vt 0.218111 0.500000
vt 0.281889 0.500000
vt 0.281889 0.750000
vt 0.218111 0.750000
vt 0.651845 0.500000
vt 0.651845 0.750000
vt 0.598155 0.750000
vt 0.598155 0.500000
vt 0.348155 0.750000
vt 0.348155 0.500000
vt 0.401845 0.500000
vt 0.401845 0.750000
vt 0.468111 0.000000
vt 0.531889 0.000000
vt 0.531889 0.250000
vt 0.468111 0.250000
vt 0.718111 0.500000
vt 0.781889 0.500000
vt 0.781889 0.750000
vt 0.718111 0.750000
vt 0.468111 0.500000
vt 0.531889 0.500000
vt 0.531889 0.750000
vt 0.468111 0.750000
vt 0.605591 0.000000
vt 0.605591 0.250000
vt 0.578747 0.250000
vt 0.578747 0.000000
vt 0.171253 0.750000
vt 0.171253 0.500000
vt 0.125000 0.750000
vt 0.125000 0.500000
vt 0.144409 0.500000
vt 0.144409 0.750000
vt 0.625000 0.000000
vt 0.625000 0.250000
vt 0.412502 0.314206
vt 0.429205 0.353757
vt 0.375000 0.343111
vt 0.394409 0.296253
vt 0.429205 0.896243
vt 0.412502 0.935794
vt 0.394409 0.953747
vt 0.375000 0.906889
vt 0.455599 0.924042
vt 0.475250 0.979981
vt 0.468111 1.000000
vt 0.421253 0.980591
vt 0.475250 0.270020
vt 0.455599 0.325958
vt 0.421253 0.269409
vt 0.552439 0.917863
vt 0.604374 0.899762
vt 0.625000 0.906889
vt 0.605591 0.953747
vt 0.604374 0.350238
vt 0.552439 0.332137
vt 0.605591 0.296253
vt 0.625000 0.343111
vt 0.561582 0.287451
vt 0.521383 0.308256
vt 0.578747 0.269409
vt 0.521383 0.941744
vt 0.561582 0.962549
vt 0.578747 0.980591
vt 0.531889 1.000000
vt 0.447561 0.832138
vt 0.395626 0.850238
vt 0.375000 0.843111
vt 0.394409 0.796253
vt 0.395626 0.399762
vt 0.447561 0.417863
vt 0.394409 0.453747
vt 0.375000 0.406889
vt 0.438418 0.462549
vt 0.478617 0.441744
vt 0.421253 0.480591
vt 0.478617 0.808256
vt 0.438418 0.787451
vt 0.421253 0.769409
vt 0.587498 0.435794
vt 0.570795 0.396243
vt 0.625000 0.406889
vt 0.605591 0.453747
vt 0.570795 0.853757
vt 0.587498 0.814206
vt 0.605591 0.796253
vt 0.625000 0.843111
vt 0.544401 0.825958
vt 0.524750 0.770020
vt 0.578747 0.769409
vt 0.524750 0.479980
vt 0.544401 0.424042
vt 0.578747 0.480591
vn -0.6858 -0.7278 0.0000
vn 0.9510 -0.3091 -0.0000
vn -0.2320 -0.9727 -0.0000
vn -0.6763 0.7366 0.0000
vn 0.6858 0.7278 0.0000
vn 0.6763 -0.7366 0.0000
vn 0.2320 0.9727 -0.0000
vn 0.4307 -0.9025 0.0000
vn -0.2255 -0.9743 0.0000
vn -0.9747 0.2233 0.0000
vn -0.8599 -0.5104 0.0000
vn 0.9747 -0.2233 0.0000
vn 0.8599 0.5104 0.0000
vn -0.4307 0.9025 0.0000
vn 0.2255 0.9743 0.0000
vn -0.9510 0.3091 -0.0000
vn 0.0000 0.0000 -1.0000
vn 0.0000 0.0000 1.0000
usemtl None
s off
f 34/1/1 51/2/1 50/3/1 35/4/1
f 57/5/2 60/6/2 61/7/2 64/8/2
f 49/9/3 52/10/3 53/11/3 56/12/3
f 38/13/4 47/14/4 46/15/4 39/16/4
f 58/17/5 43/18/5 42/19/5 59/20/5
f 54/21/6 63/22/6 62/23/6 55/24/6
f 41/25/7 44/26/7 45/27/7 48/28/7
f 34/1/8 35/4/8 36/29/8 33/30/8
f 38/31/9 39/32/9 40/33/9 37/34/9
f 42/35/10 43/36/10 44/26/10 41/25/10
f 46/15/11 47/14/11 48/28/11 45/27/11
f 50/3/12 51/2/12 52/10/12 49/9/12
f 54/21/13 55/24/13 56/12/13 53/11/13
f 58/17/14 59/20/14 60/6/14 57/5/14
f 62/23/15 63/22/15 64/8/15 61/7/15
f 33/30/16 36/29/16 37/34/16 40/33/16
f 10/37/17 9/38/17 34/39/17 33/40/17
f 4/41/18 3/42/18 36/43/18 35/44/18
f 2/45/18 1/46/18 38/47/18 37/48/18
f 12/49/17 11/50/17 40/51/17 39/16/17
f 6/52/18 5/53/18 42/54/18 41/55/18
f 16/56/17 15/57/17 44/58/17 43/59/17
f 14/60/17 13/61/17 46/15/17 45/62/17
f 8/63/18 7/64/18 48/65/18 47/66/18
f 18/67/18 17/68/18 50/69/18 49/70/18
f 28/71/17 27/72/17 52/73/17 51/74/17
f 26/75/17 25/76/17 54/21/17 53/77/17
f 20/78/18 19/79/18 56/80/18 55/24/18
f 30/81/17 29/82/17 58/83/17 57/84/17
f 24/85/18 23/86/18 60/87/18 59/88/18
f 22/89/18 21/90/18 62/23/18 61/91/18
f 32/92/17 31/93/17 64/94/17 63/22/17
f 11/50/17 10/37/17 33/40/17 40/51/17
f 3/42/18 2/45/18 37/48/18 36/43/18
f 1/46/18 8/63/18 47/66/18 38/47/18
f 13/61/17 12/49/17 39/16/17 46/15/17
f 17/68/18 4/41/18 35/44/18 50/69/18
f 19/79/18 18/67/18 49/70/18 56/80/18
f 21/90/18 20/78/18 55/24/18 62/23/18
f 23/86/18 22/89/18 61/91/18 60/87/18
f 5/53/18 24/85/18 59/88/18 42/54/18
f 7/64/18 6/52/18 41/55/18 48/65/18
f 9/38/17 28/71/17 51/74/17 34/39/17
f 15/57/17 14/60/17 45/62/17 44/58/17
f 29/82/17 16/56/17 43/59/17 58/83/17
f 31/93/17 30/81/17 57/84/17 64/94/17
f 25/76/17 32/92/17 63/22/17 54/21/17
f 27/72/17 26/75/17 53/77/17 52/73/17
f 11/50/2 2/45/2 3/42/2 10/37/2
f 2/45/15 11/50/15 12/49/15 1/46/15
f 1/46/6 12/49/6 13/61/6 8/63/6
f 14/60/13 7/64/13 8/63/13 13/61/13
f 7/64/3 14/60/3 15/57/3 6/52/3
f 6/52/12 15/57/12 16/56/12 5/53/12
f 5/53/1 16/56/1 29/82/1 24/85/1
f 30/81/8 23/86/8 24/85/8 29/82/8
f 22/89/16 23/86/16 30/81/16 31/93/16
f 22/89/9 31/93/9 32/92/9 21/90/9
f 26/75/11 19/79/11 20/78/11 25/76/11
f 20/78/4 21/90/4 32/92/4 25/76/4
f 18/67/7 19/79/7 26/75/7 27/72/7
f 18/67/10 27/72/10 28/71/10 17/68/10
f 17/68/5 28/71/5 9/38/5 4/41/5
f 10/37/14 3/42/14 4/41/14 9/38/14
